<svg width="667" height="427" viewBox="0 0 667 427" fill="none" xmlns="http://www.w3.org/2000/svg">
<g clip-path="url(#clip0_1_2)">
<mask id="mask0_1_2" style="mask-type:luminance" maskUnits="userSpaceOnUse" x="142" y="36" width="382" height="382">
<path d="M333.1 417.17C227.847 417.17 142.523 331.846 142.523 226.593C142.523 121.34 227.847 36.016 333.1 36.016C438.353 36.016 523.677 121.34 523.677 226.593C523.677 331.846 438.353 417.17 333.1 417.17Z" fill="white"/>
</mask>
<g mask="url(#mask0_1_2)">
<path d="M333.1 417.17C227.847 417.17 142.523 331.846 142.523 226.593C142.523 121.34 227.847 36.016 333.1 36.016C438.353 36.016 523.677 121.34 523.677 226.593C523.677 331.846 438.353 417.17 333.1 417.17Z" fill="url(#paint0_radial_1_2)"/>
</g>
<mask id="mask1_1_2" style="mask-type:luminance" maskUnits="userSpaceOnUse" x="153" y="72" width="66" height="66">
<path d="M218.683 104.733C218.683 122.659 204.152 137.189 186.227 137.189C168.303 137.189 153.772 122.659 153.772 104.733C153.772 86.808 168.303 72.2787 186.227 72.2787C204.152 72.2787 218.683 86.808 218.683 104.733Z" fill="white"/>
</mask>
<g mask="url(#mask1_1_2)">
<path d="M218.683 104.733C218.683 122.659 204.152 137.189 186.227 137.189C168.303 137.189 153.772 122.659 153.772 104.733C153.772 86.808 168.303 72.2787 186.227 72.2787C204.152 72.2787 218.683 86.808 218.683 104.733Z" fill="url(#paint1_radial_1_2)"/>
</g>
<mask id="mask2_1_2" style="mask-type:luminance" maskUnits="userSpaceOnUse" x="444" y="264" width="113" height="113">
<path d="M556.537 320.572C556.537 351.525 531.445 376.616 500.492 376.616C469.54 376.616 444.448 351.525 444.448 320.572C444.448 289.619 469.54 264.528 500.492 264.528C531.445 264.528 556.537 289.619 556.537 320.572Z" fill="white"/>
</mask>
<g mask="url(#mask2_1_2)">
<path d="M556.537 320.572C556.537 351.525 531.445 376.616 500.492 376.616C469.54 376.616 444.448 351.525 444.448 320.572C444.448 289.619 469.54 264.528 500.492 264.528C531.445 264.528 556.537 289.619 556.537 320.572Z" fill="url(#paint2_radial_1_2)"/>
</g>
<path d="M213.175 386.832H183.16C179.556 386.832 176.476 384.236 175.865 380.684L161.992 316.391C162.763 310.785 167.259 306.169 171.847 306.169H201.861C205.465 306.169 208.545 308.764 209.155 312.316L220.469 378.177C221.245 382.699 217.763 386.832 213.175 386.832Z" fill="#0B0B0E"/>
<path d="M251.98 306.777C237.547 318.357 202.577 355.339 203.552 426.227H252.569C252.569 426.227 237.533 376.663 264.475 346.641C268.351 342.321 271.256 337.189 272.467 331.513C273.893 324.825 274.156 316.205 269.148 309.132C265.208 303.564 257.3 302.509 251.98 306.777Z" fill="#B8C2D9"/>
<path d="M262.916 361.197C271.528 361.799 279.067 355.244 279.667 346.632L282.113 311.6C282.715 302.988 276.16 295.45 267.547 294.848C258.935 294.246 251.396 300.801 250.795 309.415L248.349 344.444C247.748 353.057 254.303 360.595 262.916 361.197Z" fill="#1679B3"/>
<path d="M263.78 358.884C270.503 359.353 276.388 354.237 276.857 347.515L279.42 310.795C279.889 304.072 274.773 298.188 268.051 297.719C261.328 297.25 255.444 302.365 254.973 309.088L252.411 345.808C251.941 352.531 257.057 358.415 263.78 358.884Z" fill="#216D9F"/>
<path d="M354.249 298.401H313.852V238.695H354.249V298.401Z" fill="#CDD3E5"/>
<path d="M354.249 298.401C346.375 278.681 334.797 260.651 320.141 245.287L313.852 238.695H354.249V298.401Z" fill="#B8C2D9"/>
<path d="M401.679 263.456L252.5 262.44C246.351 262.44 240.327 258.495 240.327 252.345L245.448 153.471C245.448 147.54 250.256 142.732 256.187 142.732L401.431 137.189C402.197 137.227 402.283 137.229 404.848 137.453C405.565 137.517 406.281 137.636 406.959 137.881C417.412 141.664 421.531 156.003 424.9 167.413C436.265 205.923 445.715 237.941 429.175 253.796C427.333 255.563 425.601 256.712 424.639 257.307C421.711 258.939 417.629 260.819 412.516 262.069C408.345 263.089 404.629 263.412 401.679 263.456Z" fill="#B8C2D9"/>
<path d="M393.888 257.913H254.475C246.865 257.913 240.696 251.744 240.696 244.135V150.967C240.696 143.357 246.865 137.189 254.475 137.189H399.665C404.084 137.189 407.665 140.771 407.665 145.189V244.135C407.665 251.744 401.497 257.913 393.888 257.913Z" fill="#F0F2F7"/>
<path d="M375.996 248.733H261.975C254.365 248.733 248.197 242.564 248.197 234.955V160.147C248.197 152.537 254.365 146.369 261.975 146.369H375.996C383.604 146.369 389.773 152.537 389.773 160.147V234.955C389.773 242.564 383.604 248.733 375.996 248.733Z" fill="white"/>
<path d="M375.996 248.733H261.975C254.365 248.733 248.197 242.564 248.197 234.955V160.147C248.197 152.537 254.365 146.369 261.975 146.369H375.996C383.604 146.369 389.773 152.537 389.773 160.147V234.955C389.773 242.564 383.604 248.733 375.996 248.733Z" fill="#3C3748"/>
<path d="M363.404 242.659H261.975C254.365 242.659 248.197 236.489 248.197 228.88V160.147C248.197 152.537 254.365 146.369 261.975 146.369H363.404C371.013 146.369 377.183 152.537 377.183 160.147V228.88C377.183 236.489 371.013 242.659 363.404 242.659Z" fill="#474056"/>
<path d="M405.435 143.595H400.543C398.555 143.595 396.927 142.153 396.927 140.392C396.927 138.631 398.555 137.189 400.543 137.189H402.167C404.155 137.189 409.052 138.631 409.052 140.392C409.052 142.153 407.424 143.595 405.435 143.595Z" fill="#B8C2D9"/>
<path d="M406.024 149.572H399.091C397.329 149.572 395.888 148.131 395.888 146.369C395.888 144.608 397.329 143.167 399.091 143.167H406.024C407.785 143.167 409.227 144.608 409.227 146.369C409.227 148.131 407.785 149.572 406.024 149.572Z" fill="#FBFDF8"/>
<path d="M412.733 155.977H402.597C400.836 155.977 399.396 154.536 399.396 152.775C399.396 151.013 400.836 149.572 402.597 149.572H412.733C414.495 149.572 415.936 151.013 415.936 152.775C415.936 154.536 414.495 155.977 412.733 155.977Z" fill="#B8C2D9"/>
<path d="M409.531 162.435H402.597C400.836 162.435 399.396 160.993 399.396 159.232C399.396 157.471 400.836 156.029 402.597 156.029H409.531C411.292 156.029 412.733 157.471 412.733 159.232C412.733 160.993 411.292 162.435 409.531 162.435Z" fill="#FBFDF8"/>
<path d="M412.733 168.84H402.597C400.836 168.84 399.396 167.399 399.396 165.637C399.396 163.876 400.836 162.435 402.597 162.435H412.733C414.495 162.435 415.936 163.876 415.936 165.637C415.936 167.399 414.495 168.84 412.733 168.84Z" fill="#B8C2D9"/>
<path d="M408.101 175.245H401.169C399.408 175.245 397.967 173.804 397.967 172.043C397.967 170.281 399.408 168.84 401.169 168.84H408.101C409.863 168.84 411.305 170.281 411.305 172.043C411.305 173.804 409.863 175.245 408.101 175.245Z" fill="#FBFDF8"/>
<path d="M414.812 181.651H404.677C402.916 181.651 401.473 180.209 401.473 178.448C401.473 176.687 402.916 175.245 404.677 175.245H414.812C416.573 175.245 418.015 176.687 418.015 178.448C418.015 180.209 416.573 181.651 414.812 181.651Z" fill="#B8C2D9"/>
<path d="M411.609 188.108H404.677C402.916 188.108 401.473 186.667 401.473 184.905C401.473 183.144 402.916 181.703 404.677 181.703H411.609C413.371 181.703 414.812 183.144 414.812 184.905C414.812 186.667 413.371 188.108 411.609 188.108Z" fill="#FBFDF8"/>
<path d="M414.812 194.513H404.677C402.916 194.513 401.473 193.072 401.473 191.311C401.473 189.549 402.916 188.108 404.677 188.108H414.812C416.573 188.108 418.015 189.549 418.015 191.311C418.015 193.072 416.573 194.513 414.812 194.513Z" fill="#B8C2D9"/>
<path d="M410.397 200.945H403.464C401.703 200.945 400.261 199.504 400.261 197.743C400.261 195.98 401.703 194.539 403.464 194.539H410.397C412.159 194.539 413.599 195.98 413.599 197.743C413.599 199.504 412.159 200.945 410.397 200.945Z" fill="#FBFDF8"/>
<path d="M412.733 207.325H402.597C400.836 207.325 399.396 205.884 399.396 204.121C399.396 202.361 400.836 200.92 402.597 200.92H412.733C414.495 200.92 415.936 202.361 415.936 204.121C415.936 205.884 414.495 207.325 412.733 207.325Z" fill="#B8C2D9"/>
<path d="M409.531 213.781H402.597C400.836 213.781 399.396 212.34 399.396 210.579C399.396 208.817 400.836 207.376 402.597 207.376H409.531C411.292 207.376 412.733 208.817 412.733 210.579C412.733 212.34 411.292 213.781 409.531 213.781Z" fill="#FBFDF8"/>
<path d="M416.372 252.317H406.237C404.475 252.317 403.033 250.877 403.033 249.116C403.033 247.355 404.475 245.913 406.237 245.913H416.372C418.135 245.913 419.576 247.355 419.576 249.116C419.576 250.877 418.135 252.317 416.372 252.317Z" fill="#FBFDF8"/>
<path d="M393.204 258.724H382.419C380.657 258.724 379.216 257.283 379.216 255.521C379.216 253.759 380.657 252.317 382.419 252.317H393.204C394.967 252.317 396.408 253.759 396.408 255.521C396.408 257.283 394.967 258.724 393.204 258.724Z" fill="#B8C2D9"/>
<path d="M412.733 220.188H402.597C400.836 220.188 399.396 218.747 399.396 216.984C399.396 215.223 400.836 213.781 402.597 213.781H412.733C414.495 213.781 415.936 215.223 415.936 216.984C415.936 218.747 414.495 220.188 412.733 220.188Z" fill="#B8C2D9"/>
<path d="M408.101 226.593H401.169C399.408 226.593 397.967 225.152 397.967 223.391C397.967 221.629 399.408 220.188 401.169 220.188H408.101C409.863 220.188 411.305 221.629 411.305 223.391C411.305 225.152 409.863 226.593 408.101 226.593Z" fill="#FBFDF8"/>
<path d="M414.812 232.999H404.677C402.916 232.999 401.473 231.557 401.473 229.796C401.473 228.033 402.916 226.593 404.677 226.593H414.812C416.573 226.593 418.015 228.033 418.015 229.796C418.015 231.557 416.573 232.999 414.812 232.999Z" fill="#B8C2D9"/>
<path d="M411.609 239.456H404.677C402.916 239.456 401.473 238.015 401.473 236.253C401.473 234.491 402.916 233.049 404.677 233.049H411.609C413.371 233.049 414.812 234.491 414.812 236.253C414.812 238.015 413.371 239.456 411.609 239.456Z" fill="#FBFDF8"/>
<mask id="mask3_1_2" style="mask-type:luminance" maskUnits="userSpaceOnUse" x="275" y="156" width="19" height="62">
<path d="M284.584 217.189C279.499 217.189 275.337 213.028 275.337 207.941V165.428C275.337 160.341 279.499 156.181 284.584 156.181C289.669 156.181 293.832 160.341 293.832 165.428V207.941C293.832 213.028 289.669 217.189 284.584 217.189Z" fill="white"/>
</mask>
<g mask="url(#mask3_1_2)">
<path d="M284.584 217.189C279.499 217.189 275.337 213.028 275.337 207.941V165.428C275.337 160.341 279.499 156.181 284.584 156.181C289.669 156.181 293.832 160.341 293.832 165.428V207.941C293.832 213.028 289.669 217.189 284.584 217.189Z" fill="url(#paint3_radial_1_2)"/>
</g>
<path d="M414.812 245.861H404.677C402.916 245.861 401.473 244.42 401.473 242.659C401.473 240.897 402.916 239.456 404.677 239.456H414.812C416.573 239.456 418.015 240.897 418.015 242.659C418.015 244.42 416.573 245.861 414.812 245.861Z" fill="#B8C2D9"/>
<path d="M280.88 217.947C278.404 217.947 276.377 215.92 276.377 213.443V180.711C276.377 178.233 278.404 176.207 280.88 176.207C283.357 176.207 285.384 178.233 285.384 180.711V213.443C285.384 215.92 283.357 217.947 280.88 217.947Z" fill="#25628D"/>
<mask id="mask4_1_2" style="mask-type:luminance" maskUnits="userSpaceOnUse" x="337" y="156" width="18" height="62">
<path d="M346.245 217.189C341.54 217.189 337.692 213.339 337.692 208.635V164.735C337.692 160.031 341.54 156.181 346.245 156.181C350.949 156.181 354.8 160.031 354.8 164.735V208.635C354.8 213.339 350.949 217.189 346.245 217.189Z" fill="white"/>
</mask>
<g mask="url(#mask4_1_2)">
<path d="M346.245 217.189C341.54 217.189 337.692 213.339 337.692 208.635V164.735C337.692 160.031 341.54 156.181 346.245 156.181C350.949 156.181 354.8 160.031 354.8 164.735V208.635C354.8 213.339 350.949 217.189 346.245 217.189Z" fill="url(#paint4_radial_1_2)"/>
</g>
<path d="M343.235 217.947C340.756 217.947 338.731 215.92 338.731 213.443V180.711C338.731 178.233 340.756 176.207 343.235 176.207C345.711 176.207 347.737 178.233 347.737 180.711V213.443C347.737 215.92 345.711 217.947 343.235 217.947Z" fill="#25628D"/>
<path d="M389.111 224.136C385.979 224.136 383.417 221.575 383.417 218.443V183.448C383.417 180.316 385.979 177.755 389.111 177.755C392.243 177.755 394.805 180.316 394.805 183.448V218.443C394.805 221.575 392.243 224.136 389.111 224.136Z" fill="#F0F2F7"/>
<path d="M248.197 224.136C245.065 224.136 242.503 221.575 242.503 218.443V183.448C242.503 180.316 245.065 177.755 248.197 177.755C251.329 177.755 253.891 180.316 253.891 183.448V218.443C253.891 221.575 251.329 224.136 248.197 224.136Z" fill="#F0F2F7"/>
<path d="M396.803 426.227H263.227C261.083 422.143 222.749 346.996 256.533 306.107L256.644 305.975C263.437 297.805 273.612 293.205 284.237 293.205H407.195L396.803 426.227Z" fill="#CDD3E5"/>
<path d="M396.803 426.227C396.803 426.227 288.952 355.558 263.227 426.227H396.803Z" fill="#8B8899"/>
<path d="M406.869 359.716C398.236 359.716 391.172 352.652 391.172 344.019V308.903C391.172 300.269 398.236 293.205 406.869 293.205C415.503 293.205 422.567 300.269 422.567 308.903V344.019C422.567 352.652 415.503 359.716 406.869 359.716Z" fill="#1679B3"/>
<path d="M410.313 357.637C403.575 357.637 398.061 352.124 398.061 345.384V308.576C398.061 301.837 403.575 296.323 410.313 296.323C417.053 296.323 422.567 301.837 422.567 308.576V345.384C422.567 352.124 417.053 357.637 410.313 357.637Z" fill="#216D9F"/>
<path d="M419.268 308.093C434.783 318.176 465.871 348.153 465.091 426.227H429.757C429.757 426.227 440.607 376.191 410.808 349.003C406.521 345.091 403.119 340.274 401.348 334.746C399.261 328.236 398.141 319.685 402.419 312.145C405.785 306.213 413.548 304.376 419.268 308.093Z" fill="#CDD3E5"/>
<path d="M353.681 325.421H268.756C263.176 325.421 258.611 320.856 258.611 315.276V315.275C258.611 309.696 263.176 305.131 268.756 305.131H353.681C359.261 305.131 363.827 309.696 363.827 315.275V315.276C363.827 320.856 359.261 325.421 353.681 325.421Z" fill="#F0F2F7"/>
<path d="M362.221 365.484H277.297C271.717 365.484 267.151 360.92 267.151 355.339C267.151 349.758 271.717 345.193 277.297 345.193H362.221C367.803 345.193 372.367 349.758 372.367 355.339C372.367 360.92 367.803 365.484 362.221 365.484Z" fill="#F0F2F7"/>
<path d="M362.221 345.193H277.297C271.717 345.193 267.151 340.628 267.151 335.046C267.151 329.468 271.717 324.901 277.297 324.901H362.221C367.803 324.901 372.367 329.468 372.367 335.046C372.367 340.628 367.803 345.193 362.221 345.193Z" fill="#F0F2F7"/>
<path d="M366.957 345.193H321.733C316.152 345.193 311.587 340.628 311.587 335.046C311.587 329.468 316.152 324.901 321.733 324.901H366.957C372.537 324.901 377.103 329.468 377.103 335.046C377.103 340.628 372.537 345.193 366.957 345.193Z" fill="#CDD3E5"/>
<path d="M274.465 345.193H259.837C254.257 345.193 249.692 340.628 249.692 335.046C249.692 329.468 254.257 324.901 259.837 324.901H274.465C280.045 324.901 284.611 329.468 284.611 335.046C284.611 340.628 280.045 345.193 274.465 345.193Z" fill="#CDD3E5"/>
<path d="M388.148 416.721L392.185 363.037C392.333 361.068 394.067 359.579 396.036 359.725C398.005 359.874 399.496 361.607 399.348 363.577L395.311 417.26C395.163 419.229 393.429 420.72 391.46 420.572C389.491 420.424 388 418.692 388.148 416.721Z" fill="#B8C2D9"/>
<path d="M365.487 210.072H352.892C349.619 210.072 346.941 207.395 346.941 204.121C346.941 200.849 349.619 198.172 352.892 198.172H365.487C368.76 198.172 371.437 200.849 371.437 204.121C371.437 207.395 368.76 210.072 365.487 210.072Z" fill="#FBFDF8"/>
<path d="M303.247 210.072H290.651C287.379 210.072 284.7 207.395 284.7 204.121C284.7 200.849 287.379 198.172 290.651 198.172H303.247C306.52 198.172 309.197 200.849 309.197 204.121C309.197 207.395 306.52 210.072 303.247 210.072Z" fill="#FBFDF8"/>
<path d="M318.985 235.772L349.529 229.367C349.533 230.184 349.448 238.381 343.021 242.659C339.223 245.187 335.252 244.984 333.668 244.881C324.916 244.312 319.767 236.931 318.985 235.772Z" fill="#FBFDF8"/>
<path d="M211.191 312.57C210.58 308.87 207.5 306.169 203.896 306.169H178.128C178.039 306.372 177.944 306.576 177.807 306.76C176.263 308.867 174.931 311.12 173.385 313.223C171.923 315.209 170.269 316.821 168.477 318.492C168.089 318.855 167.68 319.099 167.265 319.287L177.901 383.749C178.512 387.446 181.591 390.148 185.195 390.148H202.964C202.987 388.064 204.332 385.996 207.016 385.991C208.429 385.988 209.82 385.553 211.128 384.85C213.837 382.444 216.475 379.992 218.277 376.817C219.101 375.367 220.268 374.751 221.443 374.707L211.191 312.57Z" fill="#1D1D23"/>
<path d="M211.389 390.116L184.936 387.97C181.332 387.97 178.251 385.375 177.641 381.823L166.328 315.963C165.551 311.44 169.033 307.309 173.621 307.309H203.637C207.24 307.309 210.32 309.904 210.931 313.456L222.244 379.316C223.021 383.839 215.979 390.116 211.389 390.116Z" fill="#1D1D23"/>
<path d="M210.707 390.148H180.692C177.088 390.148 174.008 387.553 173.397 384.001L162.084 318.141C161.307 313.619 164.791 309.487 169.379 309.487H199.392C202.997 309.487 206.077 312.083 206.687 315.635L218 381.495C218.777 386.017 215.295 390.148 210.707 390.148Z" fill="#5D5A6A"/>
<path d="M206.772 316.132L211 312.751L221.865 377.115L218.109 382.529L206.772 316.132Z" fill="#0B0B0E"/>
<path d="M203.552 306.169L199.396 309.487H168.652L172.636 306.169H203.552Z" fill="#757083"/>
<path d="M206.772 350.72L185.633 351.346C180.687 351.493 175.879 349.701 172.233 346.353L166.219 340.828C163.789 343.336 163.563 347.245 165.687 350.017L165.72 350.063C166.052 350.495 166.432 350.888 166.855 351.233L175.032 357.921C176.44 359.074 178.237 359.636 180.051 359.492L203.552 357.637L206.772 350.72Z" fill="#B8C2D9"/>
<path d="M208.492 364.585L187.097 365.219C182.315 365.362 177.667 363.628 174.141 360.391L167.939 354.693L167.001 355.662C165.111 357.613 164.935 360.655 166.587 362.811C167.485 363.985 168.517 365.051 169.661 365.987L175.273 370.577C177.629 372.504 180.639 373.446 183.675 373.207L205.272 371.501L208.492 364.585Z" fill="#B8C2D9"/>
<path d="M212.145 365.445L185.5 376.549L170.735 370.689C169.361 373.899 170.545 377.631 173.519 379.463L174.265 379.921L192.556 385.992L211.609 373.057L212.145 365.445Z" fill="#B8C2D9"/>
<path d="M219.649 355.208L211.839 339.719C211.235 338.52 210.044 337.729 208.705 337.636L195.356 336.705C192.788 336.528 190.787 338.897 191.393 341.399L191.535 341.98C191.945 343.67 193.448 344.868 195.187 344.889L203.341 344.988C204.731 345.005 206 345.777 206.653 347.003L212.895 358.712C213.605 360.044 215.037 360.831 216.543 360.716C219.244 360.509 220.869 357.628 219.649 355.208Z" fill="#B8C2D9"/>
<path d="M190.348 331.469C190.875 335.403 189.227 338.87 186.667 339.213C184.108 339.557 181.605 336.645 181.077 332.711C180.551 328.776 182.197 325.309 184.757 324.965C187.317 324.623 189.82 327.533 190.348 331.469Z" fill="#F0F2F7"/>
<path d="M231.265 370.455C231.265 370.455 219.487 345.86 200.781 351.576C200.781 351.576 176.928 364.676 185.712 382.529C185.712 382.529 198.319 391.139 207.517 390.148C216.716 389.16 231.265 370.455 231.265 370.455Z" fill="#CDD3E5"/>
<path d="M289.461 426.227C269.139 426.227 248.816 426.227 228.495 426.227H221.565C195.119 421.768 193.167 394.203 192.556 390.116C192.556 390.116 220.033 362.127 237.193 362.127C252.023 370.512 275.448 387.153 286.255 415.809C287.585 419.337 288.639 422.82 289.461 426.227Z" fill="#DEE3EE"/>
<path d="M276.707 409.384C278.811 414.493 273.667 419.648 268.543 417.58C256.964 412.904 248.712 407.251 243.396 403.017C228.923 391.488 227.909 383.864 227.793 380.912C227.748 379.732 227.491 373.152 231.265 370.455C236.667 366.593 248.871 371.711 261.411 384.311C266.395 390.204 272.191 398.469 276.652 409.253L276.707 409.384Z" fill="#F0F2F7"/>
</g>
<defs>
<radialGradient id="paint0_radial_1_2" cx="0" cy="0" r="1" gradientUnits="userSpaceOnUse" gradientTransform="translate(327.333 373.1) scale(287.08 259.979)">
<stop stop-color="#82CBF5"/>
<stop offset="1" stop-color="#79C0F5"/>
</radialGradient>
<radialGradient id="paint1_radial_1_2" cx="0" cy="0" r="1" gradientUnits="userSpaceOnUse" gradientTransform="translate(191.556 98.6707) rotate(119.501) scale(77.619 77.6189)">
<stop stop-color="#8DCEFA"/>
<stop offset="1" stop-color="#2E8DFA"/>
</radialGradient>
<radialGradient id="paint2_radial_1_2" cx="0" cy="0" r="1" gradientUnits="userSpaceOnUse" gradientTransform="translate(517.599 293.736) scale(124.397 124.397)">
<stop stop-color="#8DCEFA"/>
<stop offset="1" stop-color="#2E8DFA"/>
</radialGradient>
<radialGradient id="paint3_radial_1_2" cx="0" cy="0" r="1" gradientUnits="userSpaceOnUse" gradientTransform="translate(284.584 186.684) scale(22.5385 22.5385)">
<stop stop-color="#64C9FA"/>
<stop offset="1" stop-color="#55B6FA"/>
</radialGradient>
<radialGradient id="paint4_radial_1_2" cx="0" cy="0" r="1" gradientUnits="userSpaceOnUse" gradientTransform="translate(346.245 186.684) scale(22.4013 22.4013)">
<stop stop-color="#64C9FA"/>
<stop offset="1" stop-color="#55B6FA"/>
</radialGradient>
<clipPath id="clip0_1_2">
<rect width="666.667" height="426.227" fill="white"/>
</clipPath>
</defs>
</svg>
